<svg width="169" height="150" viewBox="0 0 169 150" fill="none" xmlns="http://www.w3.org/2000/svg">
<path d="M94.378 0.015057C91.3347 0.183384 85.6217 1.86665 82.149 3.60603C78.9751 5.21448 77.0147 6.63591 74.3822 9.29173C69.6026 14.0984 66.522 19.9524 64.9911 27.0782C64.767 28.1069 64.4123 29.6967 64.1882 30.5944C63.9082 31.8475 63.8335 32.6704 63.8895 33.9235C63.9642 35.4385 64.0202 35.6255 64.5616 36.3175C65.1404 37.0469 65.1591 37.1217 65.0844 38.5245C64.9911 40.2825 65.4205 44.7525 65.8312 46.4358C66.2233 48.0443 66.9514 50.0268 67.6422 51.3921C68.2583 52.6452 69.4532 54.4594 69.8827 54.8147C70.1254 55.0205 70.1254 55.1888 69.808 56.2175C68.6317 60.1451 66.0366 63.1189 59.4647 68.1312C54.0876 72.2085 50.2603 76.7533 47.9451 81.7657L47.217 83.318L46.1528 83.1871C44.7339 83.0188 40.7944 82.0837 39.8609 81.6909C36.7243 80.363 34.5399 78.9603 32.3182 76.8468C29.4243 74.0601 27.4452 71.1985 25.6529 67.1961C23.6552 62.6887 22.5723 58.4244 21.3774 50.2325C20.6493 45.2201 20.3692 44.0792 19.7158 43.462C19.0623 42.8448 17.8301 42.7513 17.0459 43.2376C15.0669 44.4907 12.0796 52.0467 11.4075 57.4706C11.0528 60.463 11.5195 67.1026 12.341 70.5626C13.6853 76.267 16.1871 81.5226 19.6784 85.9739C21.4894 88.293 24.9248 91.5661 26.9785 92.9314C27.5386 93.3054 27.9867 93.6982 27.968 93.773C27.9307 93.8665 26.9038 95.0074 25.6716 96.3166C24.4393 97.6445 21.4147 100.936 18.9503 103.667C16.4858 106.398 13.8906 109.259 13.1625 110.026C12.453 110.811 11.1835 112.195 10.362 113.131C9.54049 114.047 8.43894 115.263 7.91618 115.824C7.39341 116.385 5.80644 118.199 4.36883 119.845C2.9499 121.491 1.62431 123.006 1.43761 123.211C0.765479 123.922 0 125.456 0 126.073C0 126.484 0.149362 126.84 0.485426 127.176C0.952182 127.644 1.00819 127.644 2.66984 127.551C3.62202 127.494 4.55553 127.382 4.76091 127.326C4.96628 127.27 8.79368 126.634 13.2559 125.923C17.718 125.213 21.6388 124.577 21.9375 124.521C22.2549 124.465 22.7963 124.371 23.1511 124.315C23.5058 124.259 23.9726 124.165 24.1779 124.128C25.1675 123.96 30.4325 123.099 31.0859 123.006C31.4967 122.95 32.0941 122.837 32.3928 122.744C32.7102 122.65 33.4384 122.538 34.0358 122.463C34.6333 122.407 35.7535 122.239 36.5563 122.089C41.0745 121.285 47.6277 120.144 48.2999 120.032L49.084 119.901L56.3841 134.564C60.3982 142.625 63.8335 149.358 64.0202 149.545C64.2069 149.732 64.6923 149.938 65.1031 149.994C65.7939 150.088 67.6049 149.209 92.1562 136.883C118.911 123.455 123.765 120.967 142.921 110.961C146.207 109.24 150.09 107.22 151.546 106.491C153.021 105.743 155.542 104.396 157.147 103.499C158.772 102.601 161.031 101.385 162.151 100.787C163.29 100.188 165.232 99.1221 166.501 98.3926C168.443 97.2705 168.798 96.9899 168.947 96.4849C169.134 95.7742 168.816 95.0261 168.181 94.7456C167.92 94.6333 165.96 94.1845 163.813 93.7543C161.665 93.3241 157.894 92.5573 155.43 92.071C151.453 91.2668 143.686 89.7332 136.871 88.424L134.556 87.9751L132.577 86.0487C129.609 83.131 128.451 82.1959 125.184 80.0637C121.599 77.7259 120.348 76.5476 119.415 74.6586C118.463 72.7135 118.239 71.3669 118.537 69.1973C118.668 68.2622 118.817 67.14 118.873 66.7285C118.911 66.3171 119.116 65.1949 119.303 64.2223C119.788 61.7722 120.404 60.9493 123.298 58.7424C125.968 56.7037 128.115 54.5529 129.329 52.72C130.449 50.9993 131.737 48.2687 132.017 47.0156C132.223 46.043 132.241 46.0243 132.801 46.1366C133.1 46.1927 134.295 46.6789 135.452 47.2026C137.637 48.1939 138.216 48.2874 138.309 47.6515C138.44 46.7164 135.415 44.6777 133.081 44.1166L132.559 44.0044V40.2638L133.548 40.2451C134.071 40.2264 135.621 40.1703 136.946 40.0955L139.373 39.9833V39.4409C139.373 38.5993 138.552 38.4122 135.079 38.4496L132.185 38.4871L131.905 37.6267C131.737 37.1591 131.14 35.9809 130.561 35.0083C129.534 33.2689 129.011 32.0345 128.545 30.3139C128.32 29.5096 128.339 29.36 128.694 28.6306C129.03 27.976 129.086 27.4897 129.086 26.0496C129.086 24.3476 128.974 23.4499 128.75 23.0758C128.675 22.9823 128.769 22.4025 128.918 21.804C129.403 19.9898 128.899 17.2031 127.667 14.753C125.949 11.3491 123.317 8.59972 120.33 7.08478C119.097 6.46758 116.969 5.85038 116.073 5.85038C115.849 5.85038 115.065 5.42021 114.355 4.89653C110.416 2.01627 104.796 0.314304 98.5788 0.0711659C96.7864 0.015057 94.9008 -0.0223489 94.378 0.015057ZM98.3174 6.22444C100.987 6.87904 103.116 8.22566 104.311 10.0211L104.833 10.8067H108.231C111.517 10.8067 111.629 10.8067 111.723 10.4326C111.909 9.68449 113.16 8.65583 114.243 8.33788C115.139 8.07603 115.475 8.07603 116.577 8.26306C121.954 9.17951 127.238 16.2118 125.221 19.7841C124.885 20.3826 124.586 20.6257 123.765 20.9437C122.402 21.4861 121.562 21.5609 120.162 21.2429C116.95 20.4948 114.112 18.5871 112.525 16.1183C111.872 15.1083 111.816 15.0709 110.864 14.9587C109.594 14.7904 106.532 14.7904 105.617 14.9587C105.001 15.0522 104.852 15.1832 104.441 15.9687C103.806 17.2592 101.753 19.3539 100.091 20.4574C94.2846 24.2728 85.8084 23.8426 82.8958 19.5784C80.282 15.8004 82.6344 10.2456 88.0301 7.49624C91.0547 5.9439 95.1808 5.43892 98.3174 6.22444ZM81.1968 19.1108C81.4955 19.7093 81.981 20.4574 82.261 20.794C82.5224 21.112 82.7278 21.4112 82.6904 21.4487C82.6531 21.4861 82.0743 21.8414 81.4022 22.2342C76.5479 25.0583 71.1149 29.6031 68.0903 33.3998L66.7647 35.0831L66.522 34.4846C66.0739 33.3811 66.2046 30.8749 66.8021 29.6967C67.3435 28.6119 69.5839 26.1244 71.6937 24.2915C73.598 22.6269 80.1513 18.0073 80.5994 18.0073C80.618 18.0073 80.8981 18.4936 81.1968 19.1108ZM115.569 23.8987C119.153 24.4224 122.066 25.4885 124.12 26.9847C125.035 27.658 125.371 28.2939 125.557 29.8463C125.763 31.6231 126.659 34.148 127.76 36.0931C129.198 38.618 129.198 38.7302 127.76 39.1417C126.36 39.5344 125.613 39.9833 125.688 40.4135C125.744 40.694 126.024 40.7314 127.667 40.7127H129.571V43.2376L128.059 43.2937C126.677 43.3498 126.509 43.3872 126.379 43.7613C126.173 44.3411 126.584 44.6964 127.667 44.8648C128.152 44.9396 128.731 45.0518 128.955 45.1453C129.347 45.2949 129.347 45.3323 129.105 46.2488C128.507 48.4931 126.752 51.4482 124.736 53.599C124.082 54.2911 122.607 55.5629 121.468 56.4232C119.265 58.0878 117.678 59.6214 117.156 60.6501C116.633 61.66 116.147 63.2311 116.017 64.2784C115.027 73.0688 111.069 81.7657 105.711 86.8529C103.47 89.0038 103.582 88.9851 101.715 87.5449C100.875 86.8716 99.4563 85.9178 98.5788 85.4315C96.1517 84.0662 94.8821 83.1497 93.3885 81.7096C91.6708 80.045 90.3826 78.0438 89.057 74.9765C87.9741 72.4516 87.6194 72.0028 87.0593 72.3581C86.3498 72.807 86.7232 75.7808 87.8061 78.3244C89.2624 81.7844 92.1002 84.7021 96.1703 86.9464C100.875 89.5461 103.078 91.9214 103.041 94.3902V95.3441L102.444 94.6146C101.249 93.1371 100.259 92.2581 99.7924 92.2581C99.1389 92.2581 99.1762 92.7443 99.9791 94.5024C100.334 95.3066 100.689 96.3353 100.745 96.8029C100.875 97.6632 100.857 97.6632 100.147 97.9625C99.475 98.243 99.4003 98.243 99.2323 97.9438C97.5893 95.1383 95.5729 92.9314 94.7887 93.0436C94.5647 93.081 94.3593 93.2493 94.322 93.4176C94.2846 93.6047 94.7701 94.7643 95.3862 95.98C96.021 97.2143 96.5251 98.2804 96.5251 98.3365C96.5251 98.561 95.3302 98.2056 94.266 97.6632C93.6872 97.3827 92.0629 96.3914 90.6626 95.4563C87.8247 93.6047 87.19 93.3428 84.5201 92.9127C81.2342 92.389 79.8339 91.6596 77.8362 89.49C76.1185 87.601 74.8116 85.1509 73.5047 81.3542C73.3553 80.9428 72.5712 80.9428 72.2351 81.3542C72.0484 81.56 71.9924 82.1211 72.0111 83.1684C72.0484 84.7769 72.5898 86.7968 73.4673 88.5175C73.7287 89.0412 73.8781 89.4526 73.8034 89.4526C73.4673 89.4526 63.0867 88.3117 61.7051 88.1247C60.8836 88.0125 60.1368 87.8629 60.0621 87.7694C59.8194 87.5449 60.2675 85.6185 60.9023 84.1223C62.0785 81.3168 64.3563 78.0999 71.0029 69.8893C72.7579 67.7198 73.5794 66.8594 74.1021 66.6163C74.8676 66.2797 75.9131 65.1014 76.5106 63.9231C77.3881 62.165 78.4149 57.9755 78.4149 56.1801C78.4149 55.4693 78.5083 55.2075 78.9004 54.8334C79.6098 54.1601 80.9541 51.9345 81.4582 50.5505C81.9996 49.1103 82.4477 47.0156 82.7091 44.5655C83.3812 38.5806 84.016 36.4671 86.1631 33.2502C89.393 28.3875 95.4609 24.7965 101.939 23.9174C103.116 23.7491 104.292 23.5808 104.553 23.5434C105.599 23.3564 113.702 23.6182 115.569 23.8987ZM75.409 56.4606C75.5957 56.6289 74.6249 60.8371 74.1955 61.7161C73.3553 63.4742 72.4031 63.8109 70.5361 63.0253L69.8453 62.7261L70.7415 61.2112C71.2456 60.3695 71.8804 59.0042 72.1418 58.1626C72.4218 57.3209 72.6832 56.5167 72.7205 56.3858C72.7952 56.1801 73.0939 56.1614 74.0648 56.2549C74.7743 56.3297 75.3717 56.4232 75.409 56.4606ZM40.7944 88.9663C42.0267 89.116 46.3582 89.6584 50.4096 90.1633C54.461 90.687 62.2839 91.6596 67.7729 92.3329L77.7615 93.5486L79.0684 94.2219C79.9646 94.6707 81.3088 95.1009 83.2692 95.5498C86.5178 96.2979 87.2273 96.6159 89.8971 98.4113C93.7059 101.011 95.2182 101.535 98.2427 101.348C99.3443 101.273 100.67 101.086 101.174 100.936C102.275 100.618 103.844 99.253 104.74 97.869C105.076 97.364 105.393 96.9712 105.468 97.0086C105.524 97.046 107.559 97.1769 109.968 97.2892C112.376 97.4014 115.494 97.5884 116.876 97.6819C121.73 98.056 137.954 98.6171 144.638 98.6732C148.372 98.6919 151.416 98.7667 151.416 98.8228C151.416 98.8789 150.389 99.0285 149.138 99.1595C147.868 99.2717 146.599 99.4213 146.281 99.4587C145.983 99.4961 143.07 99.9263 139.84 100.394C136.61 100.861 133.623 101.292 133.212 101.329C132.428 101.423 131.233 101.61 130.598 101.722C130.393 101.759 129.889 101.834 129.478 101.89C129.067 101.946 128.526 102.021 128.264 102.077C128.003 102.115 126.117 102.414 124.064 102.713C119.041 103.461 107.541 105.182 107.074 105.257C106.719 105.313 102.854 105.911 96.1517 106.94C91.9695 107.594 87.3953 108.343 76.6413 110.138C71.4136 111.017 66.8207 111.784 66.466 111.821C65.6445 111.934 63.9082 112.214 63.2921 112.364C63.0307 112.42 62.3212 112.532 61.7051 112.626C61.089 112.738 60.2862 112.85 59.9314 112.906C59.5767 112.962 59.1099 113.056 58.9046 113.093C58.6992 113.131 57.1869 113.43 55.5439 113.766C53.9009 114.084 52.3887 114.384 52.1833 114.44C51.7352 114.533 48.1318 115.244 47.329 115.375C47.0303 115.431 46.6382 115.506 46.4889 115.562C46.3395 115.618 44.7152 115.955 42.8482 116.31C40.9998 116.684 39.3195 117.002 39.1141 117.058C38.9088 117.096 36.3883 117.601 33.5131 118.162C29.0695 119.022 24.5513 119.957 23.5245 120.219C23.0951 120.331 18.6516 121.266 11.5755 122.725C8.0282 123.455 5.02229 124.091 4.91027 124.147C4.44351 124.315 4.68623 124.016 6.49724 122.127C11.7436 116.647 20.8173 107.071 23.7859 103.854C24.6074 102.975 25.8396 101.666 26.5117 100.955C29.7043 97.6071 35.4361 91.2855 36.3883 90.0698C37.5832 88.5175 37.2844 88.5923 40.7944 88.9663ZM123.298 90.9302C126.547 92.9688 128.376 93.5673 131.252 93.4925C133.473 93.4363 134.519 93.0997 135.247 92.2394L135.714 91.697L137.544 92.0523C138.552 92.2581 139.747 92.4638 140.213 92.5386C140.68 92.6134 141.483 92.7443 141.987 92.8566C142.51 92.9688 143.257 93.1184 143.667 93.1932C144.078 93.268 144.881 93.4364 145.441 93.5486C147.009 93.8665 147.028 93.8665 150.202 94.5024C151.845 94.8204 153.32 95.1196 153.469 95.157C154.253 95.3441 156.456 95.7929 157.11 95.9051C157.521 95.9613 158.361 96.1296 158.977 96.2605L160.097 96.5223L159.164 96.5597C156.064 96.7281 135.228 96.0548 129.851 95.6246C128.526 95.5124 125.539 95.2505 123.223 95.0448C120.908 94.8578 117.436 94.5585 115.475 94.4089C104.759 93.586 105.842 93.8104 105.375 92.3142L104.983 91.0985L105.954 90.6496L106.924 90.182L109.333 90.6683C110.658 90.9489 111.947 91.192 112.208 91.2481C112.469 91.2855 112.862 91.379 113.104 91.4164C113.328 91.4725 115.382 91.6409 117.66 91.7905C122.103 92.0897 122.477 92.0336 122.085 91.2481C121.973 91.0424 121.618 90.5748 121.282 90.2381L120.703 89.6022L121.431 89.9015C121.842 90.0698 122.682 90.5374 123.298 90.9302ZM154.589 100.487C154.589 100.581 154.477 100.674 154.328 100.674C154.029 100.674 143.761 105.762 141.222 107.164C140.307 107.688 135.284 110.269 130.038 112.925C114.206 120.93 108.325 123.941 101.379 127.569C97.7386 129.458 93.4445 131.684 91.8575 132.526C90.2705 133.348 86.4431 135.35 83.3626 136.958C74.4195 141.634 66.5033 145.655 66.41 145.562C66.0926 145.225 53.5836 119.882 53.5836 119.564C53.5836 119.396 54.8158 119.134 58.3445 118.536C59.8941 118.274 61.3504 118.031 61.6117 117.975C61.8731 117.919 63.2921 117.675 64.7857 117.414C66.2793 117.152 67.6982 116.909 67.9596 116.852C68.221 116.796 69.3599 116.591 70.4801 116.385C71.619 116.179 72.7392 115.973 73.0006 115.917C73.262 115.861 73.7287 115.786 74.0274 115.73C74.9796 115.581 75.409 115.487 78.6017 114.889C80.3006 114.571 82.0556 114.234 82.5224 114.141C82.9892 114.066 84.7442 113.729 86.4431 113.411C88.1421 113.093 90.6253 112.626 91.9509 112.364C93.2951 112.121 94.5087 111.877 94.658 111.821C94.8074 111.765 95.1995 111.69 95.4982 111.634C96.1517 111.522 101.958 110.456 102.78 110.306C103.638 110.119 110.08 108.979 113.235 108.455C118.929 107.482 120.124 107.239 122.103 106.753C123.074 106.528 124.176 106.267 124.53 106.21C124.885 106.154 125.389 106.061 125.651 106.005C126.155 105.893 129.739 105.201 130.505 105.051C130.766 105.013 131.345 104.883 131.812 104.789C132.279 104.696 133.828 104.396 135.266 104.153C138.608 103.555 139.821 103.33 140.4 103.199C140.792 103.124 145.46 102.283 146.692 102.077C147.999 101.871 153.768 100.618 154.104 100.487C154.309 100.394 154.515 100.319 154.552 100.319C154.571 100.3 154.589 100.375 154.589 100.487Z" fill="url(#paint0_linear_185_21)"/>
<path d="M92.1936 8.84286C88.5342 9.75931 85.6777 12.172 85.0429 14.9026C84.5201 17.1657 85.6963 18.9986 88.2542 19.915C89.2063 20.233 89.6731 20.2704 91.8575 20.2143C94.0606 20.1395 94.5647 20.0459 95.8716 19.5784C100.558 17.8577 103.246 14.061 101.678 11.3678C100.296 9.0299 96.0583 7.88901 92.1936 8.84286Z" fill="url(#paint1_linear_185_21)"/>
<path d="M115.475 10.5074C113.552 11.349 113.814 14.0236 116.035 16.2492C117.492 17.7268 119.303 18.6432 121.151 18.8676C122.701 19.036 123.765 17.9699 123.504 16.5111C123.111 14.4537 121.226 12.1533 119.097 11.1246C117.809 10.5074 116.129 10.2269 115.475 10.5074Z" fill="url(#paint2_linear_185_21)"/>
<path d="M118.369 31.8662C117.305 32.4834 116.969 33.0819 116.969 34.3724C116.969 35.3824 117.006 35.4946 117.38 35.5507C117.622 35.5881 118.183 35.3263 118.743 34.9522C120.05 34.0545 121.02 34.0919 122.103 35.1018C123.037 35.9622 123.784 35.8125 123.784 34.7465C123.784 33.5308 123.018 32.3338 121.879 31.7353C121.095 31.3238 119.153 31.3986 118.369 31.8662Z" fill="url(#paint3_linear_185_21)"/>
<path d="M96.301 33.0445C95.2555 33.4185 94.7327 33.8113 94.1166 34.7091C93.5192 35.5881 93.0898 36.9534 93.2018 37.6454C93.2951 38.3374 93.9673 38.4496 94.5647 37.9073C96.5624 36.0557 98.7655 35.8312 100.371 37.3088C100.931 37.8137 101.827 37.7015 101.902 37.1217C102.033 36.2427 101.379 34.8774 100.446 34.0357C99.1202 32.8388 97.7573 32.5208 96.301 33.0445Z" fill="url(#paint4_linear_185_21)"/>
<path d="M110.77 37.4397C108.53 38.0943 107.055 39.497 107.092 40.9371C107.13 42.4521 108.847 44.2476 111.629 45.6503C112.395 46.0243 113.048 46.4358 113.104 46.5667C113.216 46.9221 111.853 48.2313 110.621 48.9607C108.455 50.2512 106.047 50.6814 104.161 50.1016C102.686 49.6527 99.5123 47.8946 99.1202 47.3148C99.0456 47.2213 99.0269 46.9969 99.0829 46.8099C99.1949 46.361 98.6535 45.8747 98.0187 45.8747C96.6371 45.8747 94.0606 47.6328 92.2869 49.7836C91.0734 51.2612 90.2892 52.7948 90.4573 53.3372C90.6813 54.0666 91.2974 53.7861 92.735 52.3272C93.4818 51.5604 94.434 50.7188 94.8261 50.4569C96.189 49.5405 97.4586 49.8959 98.6722 51.523C98.9896 51.9345 99.9417 52.9631 100.819 53.8048C103.321 56.2175 105.935 57.3583 109.501 57.6015C111.779 57.7511 113.683 57.4331 115.289 56.6476C117.044 55.7873 117.94 54.9831 119.097 53.1876C119.975 51.8597 120.143 51.6913 120.796 51.5791C122.869 51.2238 125.389 48.4183 125.016 46.8847C124.904 46.4732 124.53 46.2301 124.53 46.6041C124.53 46.9221 122.981 48.5118 122.215 48.9607C120.628 49.8959 118.78 49.7275 117.1 48.4744C116.316 47.8946 115.569 46.8847 115.569 46.3984C115.569 46.2488 115.923 45.9308 116.353 45.6877C118.033 44.7525 119.732 42.6952 120.068 41.2177C120.348 39.9459 120.031 39.1042 118.985 38.4122C117.716 37.5706 116.502 37.2527 114.075 37.1591C112.357 37.103 111.704 37.1591 110.77 37.4397ZM110.901 53.1689C111.555 53.3933 112.432 53.7487 112.843 53.9544C113.534 54.3098 113.552 54.3472 113.254 54.5903C112.451 55.1701 109.09 55.1327 106.98 54.5342C105.599 54.1414 104.516 53.5803 104.609 53.2998C104.852 52.5143 108.717 52.4395 110.901 53.1689Z" fill="url(#paint5_linear_185_21)"/>
<path d="M94.378 43.0132C92.1749 43.3124 88.1608 44.6964 87.3393 45.4446C86.9286 45.8186 86.9099 46.4171 87.302 46.5667C87.4514 46.6228 88.7023 46.3797 90.0465 46.0057C92.9591 45.2014 94.2847 44.9957 97.5519 44.8461C98.8775 44.7713 100.11 44.6403 100.296 44.5468C100.782 44.285 100.894 43.6491 100.521 43.2376C100.24 42.9197 99.9604 42.8823 97.5706 42.901C96.1143 42.9197 94.6954 42.9758 94.378 43.0132Z" fill="url(#paint6_linear_185_21)"/>
<defs>
<linearGradient id="paint0_linear_185_21" x1="84.5" y1="0" x2="84.5" y2="150" gradientUnits="userSpaceOnUse">
<stop stop-color="#27509B"/>
<stop offset="1" stop-color="#AEC5E5"/>
</linearGradient>
<linearGradient id="paint1_linear_185_21" x1="84.5" y1="0" x2="84.5" y2="150" gradientUnits="userSpaceOnUse">
<stop stop-color="#27509B"/>
<stop offset="1" stop-color="#AEC5E5"/>
</linearGradient>
<linearGradient id="paint2_linear_185_21" x1="84.5" y1="0" x2="84.5" y2="150" gradientUnits="userSpaceOnUse">
<stop stop-color="#27509B"/>
<stop offset="1" stop-color="#AEC5E5"/>
</linearGradient>
<linearGradient id="paint3_linear_185_21" x1="84.5" y1="0" x2="84.5" y2="150" gradientUnits="userSpaceOnUse">
<stop stop-color="#27509B"/>
<stop offset="1" stop-color="#AEC5E5"/>
</linearGradient>
<linearGradient id="paint4_linear_185_21" x1="84.5" y1="0" x2="84.5" y2="150" gradientUnits="userSpaceOnUse">
<stop stop-color="#27509B"/>
<stop offset="1" stop-color="#AEC5E5"/>
</linearGradient>
<linearGradient id="paint5_linear_185_21" x1="84.5" y1="0" x2="84.5" y2="150" gradientUnits="userSpaceOnUse">
<stop stop-color="#27509B"/>
<stop offset="1" stop-color="#AEC5E5"/>
</linearGradient>
<linearGradient id="paint6_linear_185_21" x1="84.5" y1="0" x2="84.5" y2="150" gradientUnits="userSpaceOnUse">
<stop stop-color="#27509B"/>
<stop offset="1" stop-color="#AEC5E5"/>
</linearGradient>
</defs>
</svg>
